<?xml version="1.0" encoding="utf-8"?>
<!-- Generator: Adobe Illustrator 21.1.0, SVG Export Plug-In . SVG Version: 6.00 Build 0)  -->
<svg version="1.1" id="Capa_1" xmlns="http://www.w3.org/2000/svg" xmlns:xlink="http://www.w3.org/1999/xlink" x="0px" y="0px"
	 viewBox="0 0 40 40" style="enable-background:new 0 0 40 40;" xml:space="preserve">
<style type="text/css">
	.st0{fill:#FFFFFF;}
</style>
<g>
	<g>
		<path class="st0" d="M38.2,18.9c-0.6,0-1.1,0.5-1.1,1.1c0,9.4-7.7,17.1-17.1,17.1c-9.4,0-17.1-7.7-17.1-17.1
			c0-9.4,7.7-17.1,17.1-17.1c4.2,0,8.1,1.5,11.2,4.2l-3.6,3.6C25.5,8.9,22.8,8,20,8C13.4,8,8,13.4,8,20s5.4,12,12,12
			c6.6,0,12-5.4,12-12c0-0.6-0.5-1.1-1.1-1.1c-0.6,0-1.1,0.5-1.1,1.1c0,5.4-4.4,9.8-9.8,9.8s-9.8-4.4-9.8-9.8c0-5.4,4.4-9.8,9.8-9.8
			c2.2,0,4.3,0.7,6.1,2.1l-3.6,3.6c-0.7-0.5-1.6-0.7-2.5-0.7c0,0,0,0,0,0c-2.6,0-4.8,2.1-4.8,4.8s2.1,4.8,4.8,4.8s4.8-2.1,4.8-4.8
			c0-0.9-0.2-1.7-0.7-2.5l9.6-9.6C33.9,7.7,34,7.4,34,7.1c0-0.3-0.1-0.6-0.3-0.8C30,2.7,25.2,0.7,20,0.7c-5.2,0-10,2-13.7,5.7
			C2.7,10,0.7,14.8,0.7,20c0,5.2,2,10,5.7,13.7c3.7,3.7,8.5,5.7,13.7,5.7c5.2,0,10-2,13.7-5.7c3.7-3.7,5.7-8.5,5.7-13.7
			C39.3,19.4,38.8,18.9,38.2,18.9z"/>
	</g>
</g>
</svg>
